<?xml version="1.0" encoding="UTF-8"?>
<svg width="980px" height="514px" viewBox="0 0 980 514" version="1.1" xmlns="http://www.w3.org/2000/svg" xmlns:xlink="http://www.w3.org/1999/xlink">
    <!-- Generator: Sketch 64 (93537) - https://sketch.com -->
    <title>Battery0</title>
    <desc>Created with Sketch.</desc>
    <g id="Page-1" stroke="none" stroke-width="1" fill="none" fill-rule="evenodd">
        <g id="Battery" transform="translate(0.000000, -165.000000)">
            <path d="M395.119954,221.7 L397.001,259.399 L75.4,259.4 C54.709,259.4 38.03641,275.96369 37.7050273,296.477183 L37.7,297.1 L37.7,560.9 C37.7,581.492 54.26369,598.26161 74.777183,598.594943 L75.4,598.6 L391.431757,598.599676 C389.844114,604.802241 389,611.302544 389,618 C389,624.303004 389.747612,630.431393 391.158998,636.30133 L75.4,636.3 C34.117,636.3 0.6748,603.17262 0.0100843,562.145634 L0,560.9 L0,297.1 C0,255.916 33.02937,222.37678 74.1514257,221.710114 L75.4,221.7 L395.119954,221.7 Z M829.2,221.7 C870.384,221.7 903.92322,254.82738 904.589886,295.854366 L904.6,297.1 L904.6,334.8 L942.3,334.8 C962.892,334.8 979.66161,351.26568 979.994943,371.874243 L980,372.5 L980,485.5 C980,506.092 963.43631,522.86161 942.922817,523.194943 L942.3,523.2 L904.6,523.2 L904.6,560.9 C904.6,602.084 871.47262,635.62322 830.445634,636.289886 L829.2,636.3 L542.841002,636.30133 C544.252388,630.431393 545,624.303004 545,618 C545,611.302544 544.155886,604.802241 542.568243,598.599676 L829.2,598.6 C849.792,598.6 866.56161,582.03631 866.894943,561.522817 L866.9,560.9 L866.9,297.1 C866.9,276.2 850,259.4 829.2,259.4 L536.504,259.399 L538.386431,221.7 L829.2,221.7 Z M518.311924,221.7 L516.119,259.399 L417.386,259.399 L415.194461,221.7 L518.311924,221.7 Z" id="Combined-Shape" fill="#FFFFFF" fill-rule="nonzero"></path>
            <text id="!" font-family="SFProRounded-Heavy, SF Pro Rounded" font-size="700" font-weight="600" fill="#FF3B30">
                <tspan x="347" y="667">!</tspan>
            </text>
            <rect id="Inlay" fill="#FF3B30" fill-rule="nonzero" x="75" y="296.7" width="36.32" height="264" rx="18.16"></rect>
        </g>
    </g>
</svg>