<?xml version="1.0" encoding="UTF-8"?>
<svg width="18px" height="30px" viewBox="0 0 18 30" version="1.1" xmlns="http://www.w3.org/2000/svg" xmlns:xlink="http://www.w3.org/1999/xlink">
    <!-- Generator: Sketch 64 (93537) - https://sketch.com -->
    <title>Tropical Storm Icon Group</title>
    <desc>Created with Sketch.</desc>
    <g id="iOS-9.3-UI-Kit" stroke="none" stroke-width="1" fill="none" fill-rule="evenodd">
        <g id="Weather-Icons" transform="translate(-1339.000000, -1256.000000)">
            <g id="Tropical-Storm-Icon-Group" transform="translate(1320.000000, 1243.000000)">
                <rect id="Weather-Icon-Frame" fill="#161A2E" opacity="0" x="0" y="0" width="56" height="56"></rect>
                <g id="Tropical-Storm-Icon" transform="translate(19.000000, 12.000000)" fill="#FFFFFF">
                    <circle id="Oval" opacity="0.5" cx="9" cy="16" r="5"></circle>
                    <path d="M9,7 C7.169,7 5.468,7.55 4.046,8.489 C6.143,5.133 9.595,2.929 13.5,2.929 C14.01,2.929 14.508,2.98 15,3.052 L15,1.097 C14.507,1.036 14.008,0.999 13.5,0.999 C6.044,0.999 0,7.715 0,15.999 C0,20.97 4.029,24.999 9,24.999 C10.831,24.999 12.532,24.449 13.954,23.51 C11.857,26.866 8.405,29.07 4.5,29.07 C3.641,29.07 2.807,28.956 2,28.754 L2,30.733 C2.812,30.902 3.645,31.001 4.5,31.001 C11.956,31.001 18,24.285 18,16.001 C18,11.029 13.971,7 9,7 L9,7 Z M9,23 C5.141,23 2,19.859 2,16 C2,12.141 5.141,9 9,9 C12.859,9 16,12.141 16,16 C16,19.859 12.859,23 9,23 L9,23 Z" id="Shape"></path>
                </g>
            </g>
        </g>
    </g>
</svg>