<?xml version="1.0" encoding="UTF-8"?>
<svg width="39px" height="32px" viewBox="0 0 39 32" version="1.1" xmlns="http://www.w3.org/2000/svg" xmlns:xlink="http://www.w3.org/1999/xlink">
    <!-- Generator: Sketch 64 (93537) - https://sketch.com -->
    <title>Blowing Snow Icon Group</title>
    <desc>Created with Sketch.</desc>
    <g id="iOS-9.3-UI-Kit" stroke="none" stroke-width="1" fill="none" fill-rule="evenodd">
        <g id="Weather-Icons" transform="translate(-48.000000, -232.000000)">
            <g id="Blowing-Snow-Icon-Group" transform="translate(40.000000, 220.000000)">
                <rect id="Weather-Icon-Frame" fill="#161A2E" opacity="0" x="0" y="0" width="56" height="56"></rect>
                <g id="Blowing-Snow-Icon" transform="translate(8.000000, 12.000000)">
                    <polygon id="Shape" fill="#FFFFFF" points="19.71 14.618 17.951 13.666 18.903 11.907 17.145 10.955 16.192 12.715 11.984 10.438 16.039 7.897 17.102 9.592 18.796 8.531 17.734 6.836 19.43 5.774 18.368 4.079 16.673 5.141 15.611 3.445 13.916 4.508 14.978 6.202 11 8.693 11 4 13 4 13 2 11 2 11 0 9 0 9 2 7 2 7 4 9 4 9 8.822 4.76 6.527 5.711 4.768 3.952 3.816 3 5.575 1.241 4.623 0.29 6.382 2.049 7.334 1.097 9.093 2.855 10.045 3.808 8.285 8.016 10.562 3.961 13.103 2.898 11.408 1.204 12.469 2.266 14.164 0.57 15.226 1.632 16.921 3.327 15.859 4.389 17.555 6.084 16.492 5.022 14.798 9 12.307 9 17 7 17 7 19 9 19 9 21 11 21 11 19 13 19 13 17 11 17 11 12.178 15.24 14.473 14.289 16.232 16.048 17.184 17 15.425 18.759 16.377"></polygon>
                    <g id="Group" opacity="0.5" transform="translate(7.000000, 5.000000)"></g>
                    <path d="M16.812,21 C18.369,21 22.195,21.277 24.071,23.846 C25.411,25.681 25.288,28.396 23.786,30.163 C22.774,31.352 21.275,31.999 19.693,31.999 C19.102,31.999 18.5,31.91 17.906,31.723 C16.521,31.289 15.565,30.216 15.14,28.619 C14.88,27.644 14.953,26.187 15.647,25.274 L15.647,25.274 L17.303,26.184 C16.845,26.937 16.796,27.618 16.942,28.166 C17.207,29.161 17.709,29.762 18.478,30.003 C19.91,30.452 21.464,30.052 22.351,29.012 C23.302,27.892 23.393,26.044 22.552,24.891 C21.14,22.957 17.801,22.807 16.811,22.807 C11.479,22.807 8.347,25.789 8.316,25.819 L8.316,25.819 L7,24.541 C7.15,24.396 10.717,21 16.812,21 Z M33.039,16.004 C34.621,16.021 35.928,16.402 36.922,17.134 C38.271,18.131 39.029,19.787 39.001,21.677 C38.967,23.829 37.918,25.924 36.33,27.019 C35.396,27.66 34.222,28 32.935,28 C30.914,28 27.074,26.889 27.001,22.684 L27.001,22.684 L28.826,22.652 C28.885,26.022 32.522,26.143 32.937,26.146 C33.855,26.146 34.674,25.917 35.303,25.483 C36.415,24.718 37.149,23.212 37.174,21.647 C37.185,20.897 37.03,19.506 35.849,18.635 C35.168,18.133 34.216,17.872 33.02,17.859 C31.554,17.842 30.144,18.26 28.706,18.493 C27.208,18.735 25.698,18.899 24.183,19.001 L24.183,19.001 L20.001,19.001 L20.001,16.989 L24.24,16.98 C25.347,16.945 26.455,16.869 27.557,16.756 C29.384,16.568 31.197,15.957 33.039,16.004 Z M22.959,6.293 C24.486,4.765 26.48,5.01 26.567,5.021 C28.97,5.179 30.596,7.172 30.928,9.057 C31.07,9.867 31.003,10.713 30.676,11.471 C30.326,12.289 29.699,12.956 28.937,13.406 C27.936,13.997 26.866,13.999 25.738,13.999 L21,13.999 L21,12.001 C21.01,12.001 21.023,11.999 21.033,11.999 L21.033,11.999 L26.736,11.999 C26.919,11.999 27.101,11.996 27.284,11.999 C27.757,12.007 28.101,11.789 28.443,11.472 C28.675,11.258 28.861,10.995 28.978,10.7 C29.144,10.284 29.173,9.818 29.096,9.38 C28.89,8.209 27.891,6.972 26.382,6.871 C26.284,6.861 25.139,6.744 24.273,7.607 L24.273,7.607 Z" id="Shape" fill="#FFFFFF" opacity="0.5"></path>
                </g>
            </g>
        </g>
    </g>
</svg>