<?xml version="1.0" encoding="UTF-8"?>
<svg width="28px" height="30px" viewBox="0 0 28 30" version="1.1" xmlns="http://www.w3.org/2000/svg" xmlns:xlink="http://www.w3.org/1999/xlink">
    <!-- Generator: Sketch 64 (93537) - https://sketch.com -->
    <title>Flurry, Snow, Snow Shower Icon Group</title>
    <desc>Created with Sketch.</desc>
    <g id="iOS-9.3-UI-Kit" stroke="none" stroke-width="1" fill="none" fill-rule="evenodd">
        <g id="Weather-Icons" transform="translate(-54.000000, -791.000000)">
            <g id="Flurry,-Snow,-Snow-Shower-Icon-Group" transform="translate(40.000000, 778.000000)">
                <rect id="Weather-Icon-Frame" fill="#161A2E" opacity="0" x="0" y="0" width="56" height="56"></rect>
                <polygon id="Flurry,--Snow,--Snow-Shower-Icon" fill="#FFFFFF" points="40.304 31.292 39.302 29.556 36.008 31.457 30.021 28 36.008 24.543 39.298 26.443 40.301 24.706 38.014 23.386 41.504 21.37 40.501 19.634 37.006 21.651 37.006 19 35.001 19 35.001 22.81 29.005 26.271 29.005 19.348 32.308 17.441 31.305 15.704 29.005 17.032 29.005 13 27 13 27 17.027 24.713 15.706 23.71 17.443 27 19.343 27 26.256 21.013 22.8 21.013 19 19.008 19 19.008 21.642 15.52 19.628 14.518 21.365 18.009 23.381 15.716 24.704 16.719 26.441 20.015 24.538 26.01 28 20.015 31.462 16.716 29.558 15.713 31.294 18.009 32.619 14.521 34.634 15.523 36.37 19.008 34.358 19.008 37 21.013 37 21.013 33.201 27 29.744 27 36.657 23.713 38.556 24.716 40.292 27 38.974 27 43 29.005 43 29.005 38.969 31.302 40.294 32.304 38.558 29.005 36.652 29.005 29.729 35.001 33.191 35.001 37 37.006 37 37.006 34.349 40.498 36.365 41.501 34.628 38.014 32.614"></polygon>
            </g>
        </g>
    </g>
</svg>