<?xml version="1.0" encoding="UTF-8"?>
<svg width="42px" height="36px" viewBox="0 0 42 36" version="1.1" xmlns="http://www.w3.org/2000/svg" xmlns:xlink="http://www.w3.org/1999/xlink">
    <!-- Generator: Sketch 64 (93537) - https://sketch.com -->
    <title>Dust Icon Group</title>
    <desc>Created with Sketch.</desc>
    <g id="iOS-9.3-UI-Kit" stroke="none" stroke-width="1" fill="none" fill-rule="evenodd">
        <g id="Weather-Icons" transform="translate(-47.000000, -695.000000)">
            <g id="Dust-Icon-Group" transform="translate(40.000000, 685.000000)">
                <rect id="Weather-Icon-Frame" fill="#161A2E" opacity="0" x="0" y="0" width="56" height="56"></rect>
                <g id="Dust-Icon" transform="translate(7.000000, 10.000000)">
                    <path d="M9,29 L8,29 L8,30 L8,32 L8,33 L9,33 L11,33 L12,33 L12,32 L12,30 L12,29 L11,29 L9,29 L9,29 Z M11,32 L9,32 L9,30 L11,30 L11,32 L11,32 Z" id="Shape" fill="#FFFFFF" opacity="0.04"></path>
                    <path d="M41,17 L39,17 L39,15 L39,14 L38,14 L36,14 L36,12 L36,11 L38,11 L39,11 L39,10 L39,8 L39,7 L38,7 L36,7 L35,7 L35,8 L35,10 L35,11 L33,11 L32,11 L32,12 L32,14 L32,15 L30,15 L30,13 L30,12 L29,12 L27,12 L26,12 L26,13 L26,15 L26,16 L24,16 L24,14 L24,13 L23,13 L21,13 L20,13 L20,14 L20,16 L20,17 L21,17 L23,17 L23,19 L23,20 L21,20 L20,20 L20,21 L20,23 L20,24 L18,24 L18,22 L18,21 L17,21 L15,21 L14,21 L14,22 L14,24 L14,25 L15,25 L17,25 L17,27 L17,28 L15,28 L14,28 L14,29 L14,31 L14,32 L15,32 L17,32 L17,34 L17,35 L18,35 L20,35 L21,35 L21,34 L21,32 L21,31 L23,31 L23,33 L23,34 L24,34 L26,34 L27,34 L27,33 L27,31 L27,30 L29,30 L29,32 L29,33 L30,33 L32,33 L32,35 L32,36 L33,36 L35,36 L36,36 L36,35 L36,33 L36,32 L38,32 L38,34 L38,35 L39,35 L41,35 L42,35 L42,34 L42,32 L42,31 L41,31 L39,31 L39,29 L39,28 L38,28 L36,28 L35,28 L35,29 L35,31 L35,32 L33,32 L33,30 L33,29 L32,29 L30,29 L30,27 L30,26 L32,26 L33,26 L33,25 L33,23 L33,22 L35,22 L35,24 L35,25 L36,25 L38,25 L39,25 L39,24 L39,22 L39,21 L41,21 L42,21 L42,20 L42,18 L42,17 L41,17 L41,17 Z M36,8 L38,8 L38,10 L36,10 L36,8 L36,8 Z M41,32 L41,34 L39,34 L39,32 L41,32 L41,32 Z M36,29 L38,29 L38,31 L36,31 L36,29 L36,29 Z M38,15 L38,17 L36,17 L36,15 L38,15 L38,15 Z M33,12 L35,12 L35,14 L33,14 L33,12 L33,12 Z M35,15 L35,17 L35,18 L33,18 L33,16 L33,15 L35,15 L35,15 Z M32,16 L32,18 L30,18 L30,16 L32,16 L32,16 Z M27,13 L29,13 L29,15 L27,15 L27,13 L27,13 Z M29,16 L29,18 L29,19 L27,19 L27,17 L27,16 L29,16 L29,16 Z M27,20 L29,20 L29,22 L27,22 L27,20 L27,20 Z M21,16 L21,14 L23,14 L23,16 L21,16 L21,16 Z M26,17 L26,19 L24,19 L24,17 L26,17 L26,17 Z M26,20 L26,22 L26,23 L24,23 L24,21 L24,20 L26,20 L26,20 Z M24,24 L26,24 L26,26 L24,26 L24,24 L24,24 Z M21,21 L23,21 L23,23 L21,23 L21,21 L21,21 Z M23,24 L23,26 L23,27 L21,27 L21,25 L21,24 L23,24 L23,24 Z M15,24 L15,22 L17,22 L17,24 L15,24 L15,24 Z M20,25 L20,27 L18,27 L18,25 L20,25 L20,25 Z M15,31 L15,29 L17,29 L17,31 L15,31 L15,31 Z M20,34 L18,34 L18,32 L20,32 L20,34 L20,34 Z M18,31 L18,29 L18,28 L20,28 L20,30 L20,31 L18,31 L18,31 Z M21,30 L21,28 L23,28 L23,30 L21,30 L21,30 Z M26,33 L24,33 L24,31 L26,31 L26,33 L26,33 Z M24,30 L24,28 L24,27 L26,27 L26,29 L26,30 L24,30 L24,30 Z M35,33 L35,35 L33,35 L33,33 L35,33 L35,33 Z M32,30 L32,32 L30,32 L30,30 L32,30 L32,30 Z M27,29 L27,27 L29,27 L29,29 L27,29 L27,29 Z M27,26 L27,24 L27,23 L29,23 L29,25 L29,26 L27,26 L27,26 Z M32,25 L30,25 L30,23 L32,23 L32,25 L32,25 Z M30,22 L30,20 L30,19 L32,19 L32,21 L32,22 L30,22 L30,22 Z M33,21 L33,19 L35,19 L35,21 L33,21 L33,21 Z M38,24 L36,24 L36,22 L38,22 L38,24 L38,24 Z M36,21 L36,19 L36,18 L38,18 L38,20 L38,21 L36,21 L36,21 Z M41,20 L39,20 L39,18 L41,18 L41,20 L41,20 Z" id="Shape" fill="#FFFFFF" opacity="0.04"></path>
                    <g id="Group" opacity="0.5" transform="translate(9.000000, 8.000000)"></g>
                    <path d="M35,33 L35,35 L33,35 L33,33 L35,33 Z M20,32 L20,34 L18,34 L18,32 L20,32 Z M41,32 L41,34 L39,34 L39,32 L41,32 Z M26,31 L26,33 L24,33 L24,31 L26,31 Z M11,30 L11,32 L9,32 L9,30 L11,30 Z M32,30 L32,32 L30,32 L30,30 L32,30 Z M17,29 L17,31 L15,31 L15,29 L17,29 Z M38,29 L38,31 L36,31 L36,29 L38,29 Z M23,28 L23,30 L21,30 L21,28 L23,28 Z M29,27 L29,29 L27,29 L27,27 L29,27 Z M20,25 L20,27 L18,27 L18,25 L20,25 Z M26,24 L26,26 L24,26 L24,24 L26,24 Z M32,23 L32,25 L30,25 L30,23 L32,23 Z M17,22 L17,24 L15,24 L15,22 L17,22 Z M38,22 L38,24 L36,24 L36,22 L38,22 Z M23,21 L23,23 L21,23 L21,21 L23,21 Z M29,20 L29,22 L27,22 L27,20 L29,20 Z M35,19 L35,21 L33,21 L33,19 L35,19 Z M41,18 L41,20 L39,20 L39,18 L41,18 Z M26,17 L26,19 L24,19 L24,17 L26,17 Z M32,16 L32,18 L30,18 L30,16 L32,16 Z M38,15 L38,17 L36,17 L36,15 L38,15 Z M23,14 L23,16 L21,16 L21,14 L23,14 Z M29,13 L29,15 L27,15 L27,13 L29,13 Z M35,12 L35,14 L33,14 L33,12 L35,12 Z M38,8 L38,10 L36,10 L36,8 L38,8 Z" id="Rectangle-path" fill="#FFFFFF" opacity="0.5"></path>
                    <path d="M8.1305531,21.5651393 L9.5447531,22.9793393 L6.0092531,26.5148393 L4.5950531,25.1006393 L8.1305531,21.5651393 Z M15.918,8 C18.097,8 20.044,8.997 21.327,10.559 L21.327,10.559 L13.145,21.427 C10.658,20.353 8.917,17.881 8.918,15 C8.918,11.134 12.052,8 15.918,8 Z M5.91660065,13.9990007 L5.91660065,15.9990007 L0.916600646,15.9990007 L0.916600646,13.9990007 L5.91660065,13.9990007 Z M25.8071255,3.8854393 L27.2213255,5.2996393 L23.6858255,8.8351393 L22.2716255,7.4209393 L25.8071255,3.8854393 Z M5.8162469,3.6779393 L9.3517469,7.2134393 L7.9375469,8.6276393 L4.4020469,5.0921393 L5.8162469,3.6779393 Z M16.917,0 L16.917,5 L14.917,5 L14.917,0 L16.917,0 Z" id="Rectangle-path" fill="#FCDE00"></path>
                </g>
            </g>
        </g>
    </g>
</svg>