<?xml version="1.0" encoding="UTF-8"?>
<svg width="33px" height="34px" viewBox="0 0 33 34" version="1.1" xmlns="http://www.w3.org/2000/svg" xmlns:xlink="http://www.w3.org/1999/xlink">
    <!-- Generator: Sketch 64 (93537) - https://sketch.com -->
    <title>Fog Icon Group</title>
    <desc>Created with Sketch.</desc>
    <g id="iOS-9.3-UI-Kit" stroke="none" stroke-width="1" fill="none" fill-rule="evenodd">
        <g id="Weather-Icons" transform="translate(-51.000000, -974.000000)">
            <g id="Fog-Icon-Group" transform="translate(40.000000, 964.000000)">
                <rect id="Weather-Icon-Frame" fill="#161A2E" opacity="0" x="0" y="0" width="56" height="56"></rect>
                <g id="Fog-Icon" transform="translate(11.000000, 10.000000)" fill="#FFFFFF">
                    <rect id="Rectangle-path" opacity="0.5" x="5" y="32" width="23" height="2"></rect>
                    <rect id="Rectangle-path" opacity="0.5" x="5" y="27" width="23" height="2"></rect>
                    <path d="M25,7 C24.7,7 24.405,7.02 24.113,7.052 C22.942,2.982 19.197,0 14.75,0 C9.365,0 5,4.365 5,9.75 C5,10.2 5.041,10.641 5.101,11.074 C2.215,11.51 0,13.993 0,17 C0,20.313 2.687,23 6,23 L25,23 C29.418,23 33,19.418 33,15 C33,10.582 29.418,7 25,7 L25,7 Z" id="Shape" opacity="0.8"></path>
                </g>
            </g>
        </g>
    </g>
</svg>