<?xml version="1.0" encoding="UTF-8"?>
<svg width="38px" height="29px" viewBox="0 0 38 29" version="1.1" xmlns="http://www.w3.org/2000/svg" xmlns:xlink="http://www.w3.org/1999/xlink">
    <!-- Generator: Sketch 64 (93537) - https://sketch.com -->
    <title>Smoke Icon Group</title>
    <desc>Created with Sketch.</desc>
    <g id="iOS-9.3-UI-Kit" stroke="none" stroke-width="1" fill="none" fill-rule="evenodd">
        <g id="Weather-Icons" transform="translate(-1329.000000, -885.000000)">
            <g id="Smoke-Icon-Group" transform="translate(1320.000000, 871.000000)">
                <rect id="Weather-Icon-Frame" fill="#161A2E" opacity="0" x="0" y="0" width="56" height="56"></rect>
                <path d="M37.917,25 C37.917,25 47,25.833 47,34 C47,42.167 39.083,43 39.083,43 L39.083,43 L14.917,43 C14.917,43 9,42.583 9,36.5 C9,30.417 15.5,30 15.5,30 C15.5,30 17.833,29.917 18.417,30.167 C18.417,30.167 21.417,27 25.083,27 C25.083,27 28.583,27.083 30.417,28.917 C30.417,28.917 33.5,25 37.917,25 Z M26.418,18.998 C26.418,18.998 28.918,18.915 31.084,21.081 C31.084,21.081 34.839,20.233 36.587,23.6 C33.7,24.027 31.464,25.747 30.25,26.905 C28.108,25.613 25.468,25.508 25.12,25.5 C21.848,25.499 19.126,27.519 17.949,28.549 C17.566,28.51 17.057,28.487 16.358,28.487 C15.843,28.487 15.447,28.501 15.447,28.501 C14.508,28.561 13.297,28.824 12.104,29.366 L12.104,29.366 L12.084,29.081 C12.084,29.081 11.668,19.998 19.084,19.998 C19.084,19.998 22.001,19.998 22.584,20.915 C22.584,20.915 23.834,18.998 26.418,18.998 Z M29.333,14 C29.333,14 33.833,14.25 34.917,16.833 C34.917,16.833 36,16.25 37.25,16.25 C38.5,16.25 43.667,18.333 43,24 L43,24 L42.63,24.834 C41.075,24.073 39.485,23.666 38.238,23.529 L38.238,23.529 L37.917,22.91 C36.371,19.932 33.629,19.488 32.132,19.488 C31.932,19.488 31.748,19.496 31.584,19.508 C29.331,17.604 26.942,17.5 26.454,17.5 L26.408,17.5 C25.453,17.501 24.617,17.712 23.903,18.024 C24.342,16.14 25.649,14 29.333,14 Z" id="Smoke-Icon" fill="#FFFFFF" opacity="0.8"></path>
            </g>
        </g>
    </g>
</svg>