<?xml version="1.0" encoding="UTF-8"?>
<svg width="34px" height="27px" viewBox="0 0 34 27" version="1.1" xmlns="http://www.w3.org/2000/svg" xmlns:xlink="http://www.w3.org/1999/xlink">
    <!-- Generator: Sketch 64 (93537) - https://sketch.com -->
    <title>Breezy Icon Group</title>
    <desc>Created with Sketch.</desc>
    <g id="iOS-9.3-UI-Kit" stroke="none" stroke-width="1" fill="none" fill-rule="evenodd">
        <g id="Weather-Icons" transform="translate(-51.000000, -327.000000)">
            <g id="Breezy-Icon-Group" transform="translate(40.000000, 313.000000)">
                <rect id="Weather-Icon-Frame" fill="#161A2E" opacity="0" x="0" y="0" width="56" height="56"></rect>
                <path d="M22.812,30 C24.369,30 28.195,30.277 30.071,32.846 C31.411,34.681 31.288,37.396 29.786,39.163 C28.774,40.352 27.275,40.999 25.693,40.999 C25.102,40.999 24.5,40.91 23.906,40.723 C22.521,40.289 21.565,39.216 21.14,37.619 C20.88,36.644 20.953,35.187 21.647,34.274 L21.647,34.274 L23.303,35.184 C22.845,35.937 22.796,36.618 22.942,37.166 C23.207,38.161 23.709,38.762 24.478,39.003 C25.91,39.452 27.464,39.052 28.351,38.012 C29.302,36.892 29.393,35.044 28.552,33.891 C27.14,31.957 23.801,31.807 22.811,31.807 C17.479,31.807 14.347,34.789 14.316,34.819 L14.316,34.819 L13,33.541 C13.15,33.396 16.717,30 22.812,30 Z M38.6596758,25.0010449 L39.039,25.004 C40.621,25.021 41.928,25.402 42.922,26.134 C44.271,27.131 45.029,28.786 45,30.676 C44.965,32.827 43.917,34.923 42.329,36.018 C41.395,36.659 40.221,36.999 38.934,36.999 C36.913,36.999 33.073,35.888 33,31.683 L33,31.683 L34.825,31.651 C34.884,35.022 38.521,35.142 38.936,35.145 C39.854,35.145 40.673,34.916 41.302,34.482 C42.414,33.717 43.148,32.211 43.173,30.646 C43.184,29.895 43.029,28.505 41.848,27.634 C41.167,27.132 40.215,26.871 39.019,26.858 C38.2,26.848 37.417,26.935 36.741,27.113 C34.47,27.712 32.249,27.898 30.181,27.833 C27.547,27.749 24.798,27.368 22.011,27.023 C16.1,26.247 12.435,30.595 12.399,30.64 L12.399,30.64 L11,29.448 C11.175,29.236 15.356,24.283 22.239,25.182 C24.966,25.52 27.66,25.897 30.239,25.979 C32.168,26.037 34.233,25.857 36.282,25.318 C37.111,25.099 38.012,24.978 39.039,25.004 Z M28.958,15.291 C30.485,13.764 32.479,14.009 32.566,14.02 C34.969,14.178 36.595,16.172 36.927,18.056 C37.282,20.065 36.314,21.837 34.403,22.68 C32.742,23.414 30.932,23.256 29.334,23.117 L29.334,23.117 L29.031,23.091 C26.473,22.876 23.803,22.248 21.244,22.019 C15.334,21.44 12.374,24.971 12.345,25.002 L12.345,25.002 L11,23.718 C11.148,23.562 14.611,19.497 21.417,20.167 C23.965,20.395 26.632,21.022 29.188,21.238 L29.188,21.238 L29.494,21.264 C30.937,21.389 32.427,21.519 33.652,20.978 C35.244,20.275 35.192,18.927 35.095,18.379 C34.889,17.208 33.89,15.971 32.381,15.87 C32.283,15.86 31.138,15.743 30.272,16.606 L30.272,16.606 Z" id="Breezy-Icon" fill="#FFFFFF" opacity="0.5"></path>
            </g>
        </g>
    </g>
</svg>