<?xml version="1.0" encoding="UTF-8"?>
<svg width="30px" height="34px" viewBox="0 0 30 34" version="1.1" xmlns="http://www.w3.org/2000/svg" xmlns:xlink="http://www.w3.org/1999/xlink">
    <!-- Generator: Sketch 64 (93537) - https://sketch.com -->
    <title>Ice Icon Group</title>
    <desc>Created with Sketch.</desc>
    <g id="iOS-9.3-UI-Kit" stroke="none" stroke-width="1" fill="none" fill-rule="evenodd">
        <g id="Weather-Icons" transform="translate(-693.000000, -417.000000)">
            <g id="Ice-Icon-Group" transform="translate(680.000000, 406.000000)">
                <rect id="Weather-Icon-Frame" fill="#161A2E" opacity="0" x="0" y="0" width="56" height="56"></rect>
                <g id="Ice-Icon" transform="translate(13.000000, 11.000000)">
                    <polygon id="Shape" fill="#FFFFFF" points="11 14.237 15 16.561 15 14.248 12.016 12.515 15 10.838 15 8.544 11 10.791 11 6 13 6 13 4 11 4 11 2 9 2 9 4 7 4 7 6 9 6 9 10.763 4.882 8.371 5.886 6.642 4.156 5.637 3.152 7.366 1.423 6.361 0.418 8.092 2.147 9.096 1.143 10.825 2.873 11.83 3.877 10.101 7.984 12.485 3.843 14.812 2.863 13.068 1.12 14.047 2.1 15.791 0.355 16.771 1.335 18.515 3.079 17.535 4.059 19.278 5.803 18.299 4.822 16.556 9 14.209 9 19 7 19 7 21 9 21 9 23 11 23 11 21 13 21 13 19 11 19"></polygon>
                    <path d="M23,22.142 L23,19 L21,19 L21,22.142 C19.277,22.588 18,24.139 18,26 C18,28.209 19.791,30 22,30 C24.209,30 26,28.209 26,26 C26,24.139 24.723,22.588 23,22.142 L23,22.142 Z" id="Shape" fill="#5AC8FA"></path>
                    <path d="M27,19.767 L27,5 C27,2.238 24.762,0 22,0 C19.238,0 17,2.238 17,5 L17,19.767 C15.173,21.233 14,23.481 14,26 C14,30.411 17.589,34 22,34 C26.411,34 30,30.411 30,26 C30,23.48 28.827,21.232 27,19.767 L27,19.767 Z M22,32 C18.687,32 16,29.313 16,26 C16,23.78 17.208,21.847 19,20.81 L19,5 C19,3.346 20.346,2 22,2 C23.654,2 25,3.346 25,5 L25,20.81 C26.792,21.847 28,23.781 28,26 C28,29.313 25.313,32 22,32 L22,32 Z" id="Shape" fill="#FFFFFF"></path>
                </g>
            </g>
        </g>
    </g>
</svg>