<?xml version="1.0" encoding="UTF-8"?>
<svg width="38px" height="30px" viewBox="0 0 38 30" version="1.1" xmlns="http://www.w3.org/2000/svg" xmlns:xlink="http://www.w3.org/1999/xlink">
    <!-- Generator: Sketch 64 (93537) - https://sketch.com -->
    <title>Partly Cloudy Night Icon Group</title>
    <desc>Created with Sketch.</desc>
    <g id="iOS-9.3-UI-Kit" stroke="none" stroke-width="1" fill="none" fill-rule="evenodd">
        <g id="Weather-Icons" transform="translate(-689.000000, -1163.000000)">
            <g id="Partly-Cloudy-Night-Icon-Group" transform="translate(680.000000, 1150.000000)">
                <rect id="Weather-Icon-Frame" fill="#161A2E" opacity="0" x="0" y="0" width="56" height="56"></rect>
                <g id="Partly-Cloudy-Night-Icon" transform="translate(9.000000, 13.000000)" fill="#FFFFFF">
                    <path d="M6.5,8 L5.907,6.617 C5.806,6.382 5.618,6.193 5.383,6.093 L4,5.5 L5.383,4.907 C5.618,4.806 5.807,4.618 5.907,4.383 L6.5,3 L7.093,4.383 C7.194,4.618 7.382,4.807 7.618,4.907 L9,5.5 L7.618,6.093 C7.382,6.194 7.193,6.382 7.093,6.617 L6.5,8 L6.5,8 Z" id="Shape"></path>
                    <path d="M2.5,15.5 L2.026,14.395 C1.945,14.206 1.795,14.055 1.605,13.974 L0.5,13.5 L1.605,13.026 C1.794,12.945 1.945,12.795 2.026,12.605 L2.5,11.5 L2.974,12.605 C3.055,12.794 3.205,12.945 3.395,13.026 L4.5,13.5 L3.395,13.974 C3.206,14.055 3.055,14.205 2.974,14.395 L2.5,15.5 L2.5,15.5 Z" id="Shape"></path>
                    <path d="M34,22.5 C34,18.357 30.643,15 26.5,15 C26.352,15 26.207,15.014 26.061,15.022 C24.915,11.526 21.629,9 17.75,9 C12.918,9 9,12.918 9,17.75 C9,17.864 9.013,17.975 9.017,18.088 C6.172,18.558 4,21.022 4,24 C4,27.313 6.687,30 10,30 L27,30 L27,29.975 C30.908,29.717 34,26.474 34,22.5 L34,22.5 Z" id="Shape" opacity="0.5"></path>
                    <path d="M27.413,13.043 C29.783,13.271 31.899,14.375 33.439,16.024 C35.837,14.763 37.561,12.393 37.921,9.592 C37.16,9.852 36.348,9.999 35.499,9.999 C31.356,9.999 27.999,6.642 27.999,2.499 C27.999,1.65 28.146,0.838 28.406,0.077 C24.545,0.573 21.498,3.657 21.059,7.536 C23.813,8.428 26.125,10.39 27.413,13.043 L27.413,13.043 Z" id="Shape"></path>
                </g>
            </g>
        </g>
    </g>
</svg>