<?xml version="1.0" encoding="UTF-8"?>
<svg width="33px" height="33px" viewBox="0 0 33 33" version="1.1" xmlns="http://www.w3.org/2000/svg" xmlns:xlink="http://www.w3.org/1999/xlink">
    <!-- Generator: Sketch 64 (93537) - https://sketch.com -->
    <title>Severe Thunderstorm Icon Group</title>
    <desc>Created with Sketch.</desc>
    <g id="iOS-9.3-UI-Kit" stroke="none" stroke-width="1" fill="none" fill-rule="evenodd">
        <g id="Weather-Icons" transform="translate(-1331.000000, -604.000000)">
            <g id="Severe-Thunderstorm-Icon-Group" transform="translate(1320.000000, 592.000000)">
                <rect id="Weather-Icon-Frame" fill="#161A2E" opacity="0" x="0" y="0" width="56" height="56"></rect>
                <g id="Severe-Thunderstorm-Icon" transform="translate(11.000000, 12.000000)" fill="#FFFFFF">
                    <polygon id="Shape" points="13 12 20 12 18.5 18 22 18 13.25 33 14 23 10.5 23"></polygon>
                    <path d="M25,7 C24.7,7 24.405,7.02 24.113,7.052 C22.942,2.981 19.197,0 14.75,0 C9.365,0 5,4.365 5,9.75 C5,10.2 5.041,10.641 5.101,11.074 C2.215,11.51 0,13.993 0,17 C0,20.313 2.687,23 6,23 L8.449,23 L8.55,22.557 L11.404,10 L22.562,10 L21.062,16 L25.483,16 L21.399,23 L25.001,23 C29.419,23 33.001,19.418 33.001,15 C33.001,10.582 29.418,7 25,7 L25,7 Z" id="Shape" opacity="0.8"></path>
                </g>
            </g>
        </g>
    </g>
</svg>