<?xml version="1.0" encoding="UTF-8"?>
<svg width="33px" height="38px" viewBox="0 0 33 38" version="1.1" xmlns="http://www.w3.org/2000/svg" xmlns:xlink="http://www.w3.org/1999/xlink">
    <!-- Generator: Sketch 64 (93537) - https://sketch.com -->
    <title>Hail Icon Group</title>
    <desc>Created with Sketch.</desc>
    <g id="iOS-9.3-UI-Kit" stroke="none" stroke-width="1" fill="none" fill-rule="evenodd">
        <g id="Weather-Icons" transform="translate(-51.000000, -1159.000000)">
            <g id="Hail-Icon-Group" transform="translate(40.000000, 1150.000000)">
                <rect id="Weather-Icon-Frame" fill="#161A2E" opacity="0" x="0" y="0" width="56" height="56"></rect>
                <path d="M27.5,42 C28.8807119,42 30,43.1192881 30,44.5 C30,45.8807119 28.8807119,47 27.5,47 C26.1192881,47 25,45.8807119 25,44.5 C25,43.1192881 26.1192881,42 27.5,42 Z M36,41 C37.1045695,41 38,41.8954305 38,43 C38,44.1045695 37.1045695,45 36,45 C34.8954305,45 34,44.1045695 34,43 C34,41.8954305 34.8954305,41 36,41 Z M13,40 C14.1045695,40 15,40.8954305 15,42 C15,43.1045695 14.1045695,44 13,44 C11.8954305,44 11,43.1045695 11,42 C11,40.8954305 11.8954305,40 13,40 Z M32.4721978,34.7676844 L33.9593478,35.6902844 L29.9394478,42.1700094 L28.4522978,41.2474094 L32.4721978,34.7676844 Z M20.5,39 C21.3284271,39 22,39.6715729 22,40.5 C22,41.3284271 21.3284271,42 20.5,42 C19.6715729,42 19,41.3284271 19,40.5 C19,39.6715729 19.6715729,39 20.5,39 Z M39.3351894,36.6800144 L40.8223394,37.6026144 L38.4499394,41.4267144 L36.9627894,40.5041144 L39.3351894,36.6800144 Z M16.7118178,34.9089672 L18.1989678,35.8315672 L15.5629678,40.0805672 L14.0758178,39.1579672 L16.7118178,34.9089672 Z M23.1947124,35.5677816 L24.6818624,36.4903816 L23.0343624,39.1460066 L21.5472124,38.2234066 L23.1947124,35.5677816 Z M25.75,9 C30.197,9 33.942,11.981 35.113,16.052 C35.405,16.02 35.7,16 36,16 C40.418,16 44,19.582 44,24 C44,28.418 40.418,32 36,32 L36,32 L17,32 C13.687,32 11,29.313 11,26 C11,22.993 13.215,20.51 16.101,20.074 C16.041,19.641 16,19.2 16,18.75 C16,13.365 20.365,9 25.75,9 Z" id="Hail-Icon" fill="#FFFFFF" opacity="0.8"></path>
            </g>
        </g>
    </g>
</svg>