<?xml version="1.0" encoding="UTF-8"?>
<svg width="30px" height="34px" viewBox="0 0 30 34" version="1.1" xmlns="http://www.w3.org/2000/svg" xmlns:xlink="http://www.w3.org/1999/xlink">
    <!-- Generator: Sketch 64 (93537) - https://sketch.com -->
    <title>Hot Icon Group</title>
    <desc>Created with Sketch.</desc>
    <g id="iOS-9.3-UI-Kit" stroke="none" stroke-width="1" fill="none" fill-rule="evenodd">
        <g id="Weather-Icons" transform="translate(-693.000000, -231.000000)">
            <g id="Hot-Icon-Group" transform="translate(680.000000, 220.000000)">
                <rect id="Weather-Icon-Frame" fill="#161A2E" opacity="0" x="0" y="0" width="56" height="56"></rect>
                <g id="Hot-Icon" transform="translate(13.000000, 11.000000)">
                    <path d="M6.2212638,20.56445 L7.6354638,21.97865 L4.0999638,25.51415 L2.6857638,24.09995 L6.2212638,20.56445 Z M14,7 C14.341,7 14.673,7.032 15,7.08 L15,7.08 L15,20.92 C14.673,20.968 14.341,21 14,21 C10.134,21 7,17.866 7,14 C7,10.134 10.134,7 14,7 Z M5.00000068,12.0000007 L5.00000068,14.0000007 L6.75232513e-07,14.0000007 L6.75323463e-07,12.0000007 L5.00000068,12.0000007 Z M3.8979362,2.68565 L7.4334362,6.22115 L6.0192362,7.63535 L2.4837362,4.09985 L3.8979362,2.68565 Z M15,0 L15,5 L13,5 L13,0 L15,0 Z" id="Rectangle-path" fill="#FCDE00"></path>
                    <path d="M23,22.142 L23,5 L21,5 L21,22.142 C19.277,22.588 18,24.139 18,26 C18,28.209 19.791,30 22,30 C24.209,30 26,28.209 26,26 C26,24.139 24.723,22.588 23,22.142 L23,22.142 Z" id="Shape" fill="#FF3A2F"></path>
                    <path d="M27,19.767 L27,5 C27,2.238 24.762,0 22,0 C19.238,0 17,2.238 17,5 L17,19.767 C15.173,21.233 14,23.481 14,26 C14,30.411 17.589,34 22,34 C26.411,34 30,30.411 30,26 C30,23.48 28.827,21.232 27,19.767 L27,19.767 Z M22,32 C18.687,32 16,29.313 16,26 C16,23.78 17.208,21.848 19,20.81 L19,5 C19,3.346 20.346,2 22,2 C23.654,2 25,3.346 25,5 L25,20.81 C26.792,21.848 28,23.781 28,26 C28,29.313 25.313,32 22,32 L22,32 Z" id="Shape" fill="#FFFFFF"></path>
                </g>
            </g>
        </g>
    </g>
</svg>