<?xml version="1.0" encoding="UTF-8"?>
<svg width="40px" height="42px" viewBox="0 0 40 42" version="1.1" xmlns="http://www.w3.org/2000/svg" xmlns:xlink="http://www.w3.org/1999/xlink">
    <!-- Generator: Sketch 64 (93537) - https://sketch.com -->
    <title>Scattered Showers Icon Group</title>
    <desc>Created with Sketch.</desc>
    <g id="iOS-9.3-UI-Kit" stroke="none" stroke-width="1" fill="none" fill-rule="evenodd">
        <g id="Weather-Icons" transform="translate(-1328.000000, -226.000000)">
            <g id="Scattered-Showers-Icon-Group" transform="translate(1320.000000, 220.000000)">
                <rect id="Weather-Icon-Frame" fill="#161A2E" opacity="0" x="0" y="0" width="56" height="56"></rect>
                <g id="Scattered-Showers-Icon" transform="translate(8.000000, 6.000000)">
                    <path d="M19.1155734,37.8243388 L20.5314984,38.8528138 L18.2541609,41.9880763 L16.8382359,40.9596013 L19.1155734,37.8243388 Z M27.035809,35.852801 L28.451734,36.881276 L26.1743965,40.0165385 L24.7584715,38.9880635 L27.035809,35.852801 Z M34.275873,35.1402322 L35.691448,36.1690572 L33.4133355,39.3035447 L31.9977605,38.2747197 L34.275873,35.1402322 Z M14.0036417,33.8012409 L15.4195667,34.8297159 L13.1422292,37.9649784 L11.7263042,36.9365034 L14.0036417,33.8012409 Z" id="Rectangle-path" fill="#5AC8FA"></path>
                    <path d="M40,24.5 C40,20.358 36.643,17 32.5,17 C32.352,17 32.207,17.014 32.061,17.022 C30.915,13.526 27.629,11 23.75,11 C18.918,11 15,14.918 15,19.75 C15,19.864 15.013,19.975 15.017,20.088 C12.172,20.558 10,23.023 10,26 C10,29.313 12.687,32 16,32 L33,32 L33,31.975 C36.908,31.717 40,28.474 40,24.5 L40,24.5 Z" id="Shape" fill="#FFFFFF" opacity="0.8"></path>
                    <path d="M7.2250638,21.57175 L8.6392638,22.98595 L5.1037638,26.52145 L3.6895638,25.10725 L7.2250638,21.57175 Z M15,7.999 C16.803,7.999 18.441,8.687 19.682,9.806 C16.119,11.27 13.505,14.589 13.066,18.559 C12.058,18.953 11.172,19.554 10.42,20.286 C8.94,19.002 8,17.113 8,14.999 C8,11.133 11.134,7.999 15,7.999 Z M5.0000007,14.0000007 L5.0000007,16.0000007 L7.0410897e-07,16.0000007 L7.0419992e-07,14.0000007 L5.0000007,14.0000007 Z M24.9026362,3.89215 L26.3168362,5.30635 L22.7813362,8.84185 L21.3671362,7.42765 L24.9026362,3.89215 Z M4.8940362,3.68945 L8.4295362,7.22495 L7.0153362,8.63915 L3.4798362,5.10365 L4.8940362,3.68945 Z M16,0 L16,5 L14,5 L14,0 L16,0 Z" id="Rectangle-path" fill="#FCDE00"></path>
                </g>
            </g>
        </g>
    </g>
</svg>