<?xml version="1.0" encoding="UTF-8"?>
<svg width="33px" height="36px" viewBox="0 0 33 36" version="1.1" xmlns="http://www.w3.org/2000/svg" xmlns:xlink="http://www.w3.org/1999/xlink">
    <!-- Generator: Sketch 64 (93537) - https://sketch.com -->
    <title>Heavy Rain Icon Group</title>
    <desc>Created with Sketch.</desc>
    <g id="iOS-9.3-UI-Kit" stroke="none" stroke-width="1" fill="none" fill-rule="evenodd">
        <g id="Weather-Icons" transform="translate(-691.000000, -137.000000)">
            <g id="Heavy-Rain-Icon-Group" transform="translate(680.000000, 127.000000)">
                <rect id="Weather-Icon-Frame" fill="#161A2E" opacity="0" x="0" y="0" width="56" height="56"></rect>
                <g id="Heavy-Rain-Icon" transform="translate(11.000000, 10.000000)">
                    <path d="M25,7 C24.7,7 24.405,7.02 24.113,7.052 C22.942,2.982 19.197,0 14.75,0 C9.365,0 5,4.365 5,9.75 C5,10.2 5.041,10.641 5.101,11.075 C2.215,11.51 0,13.993 0,17 C0,20.313 2.687,23 6,23 L25,23 C29.418,23 33,19.418 33,15 C33,10.582 29.418,7 25,7 L25,7 Z" id="Shape" fill="#FFFFFF" opacity="0.8"></path>
                    <path d="M22.1241446,25.6127678 L23.5398946,26.6414178 L17.2210446,35.3381678 L15.8052946,34.3095178 L22.1241446,25.6127678 Z M11.1289818,25.1215438 L12.5447318,26.1501938 L6.3728318,34.6446938 L4.9570818,33.6160438 L11.1289818,25.1215438 Z M16.5516006,25.4552378 L17.9673506,26.4838878 L12.6771506,33.7648878 L11.2614006,32.7362378 L16.5516006,25.4552378 Z M5.729892,25.4972976 L7.144833,26.5253598 L3.103708,32.0872348 L1.688767,31.0591726 L5.729892,25.4972976 Z M26.7558948,25.4794076 L28.1716448,26.5080576 L24.1305198,32.0699326 L22.7147698,31.0412826 L26.7558948,25.4794076 Z" id="Rectangle-path" fill="#5AC8FA"></path>
                </g>
            </g>
        </g>
    </g>
</svg>