<?xml version="1.0" encoding="UTF-8"?>
<svg width="33px" height="42px" viewBox="0 0 33 42" version="1.1" xmlns="http://www.w3.org/2000/svg" xmlns:xlink="http://www.w3.org/1999/xlink">
    <!-- Generator: Sketch 64 (93537) - https://sketch.com -->
    <title>Sleet Icon Group</title>
    <desc>Created with Sketch.</desc>
    <g id="iOS-9.3-UI-Kit" stroke="none" stroke-width="1" fill="none" fill-rule="evenodd">
        <g id="Weather-Icons" transform="translate(-1331.000000, -786.000000)">
            <g id="Sleet-Icon-Group" transform="translate(1320.000000, 778.000000)">
                <rect id="Weather-Icon-Frame" fill="#161A2E" opacity="0" x="0" y="0" width="56" height="56"></rect>
                <g id="Sleet-Icon" transform="translate(11.000000, 8.000000)">
                    <polygon id="Shape" fill="#FFFFFF" points="25.71 23.618 23.951 22.666 24.903 20.907 23.145 19.955 22.192 21.714 17.984 19.437 22.039 16.897 23.102 18.592 24.796 17.53 23.734 15.836 25.43 14.774 24.368 13.079 22.673 14.141 21.611 12.445 19.916 13.507 20.978 15.202 17 17.693 17 13 19 13 19 11 17 11 17 9 15 9 15 11 13 11 13 13 15 13 15 17.821 10.76 15.526 11.711 13.768 9.952 12.815 9 14.575 7.241 13.623 6.29 15.382 8.049 16.334 7.097 18.093 8.855 19.045 9.808 17.285 14.016 19.562 9.961 22.103 8.898 20.407 7.204 21.469 8.266 23.164 6.57 24.226 7.632 25.921 9.327 24.859 10.389 26.554 12.084 25.492 11.022 23.798 15 21.306 15 26 13 26 13 28 15 28 15 30 17 30 17 28 19 28 19 26 17 26 17 21.178 21.24 23.473 20.289 25.232 22.048 26.184 23 24.425 24.759 25.377"></polygon>
                    <path d="M25,7 C24.7,7 24.405,7.02 24.113,7.052 C22.942,2.981 19.197,0 14.75,0 C9.365,0 5,4.365 5,9.75 C5,10.2 5.041,10.641 5.101,11.074 C2.215,11.51 0,13.993 0,17 C0,19.919 2.085,22.348 4.846,22.887 C5.149,22.564 5.225,22.076 4.979,21.684 L4.978,21.683 C4.685,21.215 4.827,20.599 5.295,20.305 L6.077,19.816 L5.265,19.376 C4.78,19.113 4.599,18.507 4.862,18.022 L4.863,18.021 C5.126,17.536 4.945,16.929 4.46,16.667 C3.975,16.403 3.794,15.797 4.057,15.312 L4.533,14.433 L5.484,12.674 L5.96,11.794 C6.223,11.308 6.829,11.127 7.315,11.39 L8.195,11.867 L8.195,11.866 L8.672,10.987 C8.935,10.501 9.541,10.321 10.026,10.584 L10.906,11.06 L11.002,11.112 L11.002,11 L11.002,9.999 C11.002,9.447 11.449,9 12.002,9 L12.002,9 C12.555,9 13.002,8.553 13.002,8 L13.002,7.999 C13.002,7.447 13.449,7 14.002,7 L15.002,7 L17.002,7 L18.002,7 C18.555,7 19.002,7.447 19.002,7.999 L19.002,8 C19.002,8.553 19.449,9 20.002,9 L20.002,9 C20.555,9 21.002,9.447 21.002,9.999 L21.002,10.469 L21.4,10.22 C21.868,9.927 22.484,10.069 22.777,10.536 L23.308,11.384 L23.308,11.384 L24.156,10.853 C24.625,10.56 25.241,10.703 25.534,11.17 L26.065,12.018 L27.127,13.713 L27.658,14.561 C27.951,15.029 27.808,15.646 27.341,15.939 L27.341,15.939 C26.873,16.232 26.731,16.849 27.024,17.317 L27.025,17.317 C27.318,17.785 27.176,18.402 26.708,18.695 L25.926,19.185 L26.738,19.624 C27.223,19.887 27.404,20.494 27.141,20.979 L27.14,20.98 C26.877,21.465 27.058,22.072 27.543,22.334 C27.625,22.378 27.684,22.443 27.748,22.505 C30.811,21.384 33.002,18.451 33.002,14.999 C33,10.582 29.418,7 25,7 L25,7 Z" id="Shape" fill="#FFFFFF" opacity="0.8"></path>
                    <path d="M22.8499088,30.5823286 L24.3498338,31.4837536 L18.4261838,41.3404036 L16.9262588,40.4389786 L22.8499088,30.5823286 Z M7.7129448,32.715633 L9.2128698,33.617058 L4.5769698,41.330958 L3.0770448,40.429533 L7.7129448,32.715633 Z M13.907343,33.8135482 L15.407268,34.7149732 L12.574218,39.4290232 L11.074293,38.5275982 L13.907343,33.8135482 Z M30.1001726,26.960485 L31.6002726,27.861735 L27.5446476,34.612185 L26.0445476,33.710935 L30.1001726,26.960485 Z M5.1112082,27.2911421 L6.6113082,28.1925671 L3.1343832,33.9786671 L1.6342832,33.0772421 L5.1112082,27.2911421 Z" id="Rectangle-path" fill="#5AC8FA"></path>
                </g>
            </g>
        </g>
    </g>
</svg>