<?xml version="1.0" encoding="UTF-8"?>
<svg width="33px" height="36px" viewBox="0 0 33 36" version="1.1" xmlns="http://www.w3.org/2000/svg" xmlns:xlink="http://www.w3.org/1999/xlink">
    <!-- Generator: Sketch 64 (93537) - https://sketch.com -->
    <title>Drizzle Icon Group</title>
    <desc>Created with Sketch.</desc>
    <g id="iOS-9.3-UI-Kit" stroke="none" stroke-width="1" fill="none" fill-rule="evenodd">
        <g id="Weather-Icons" transform="translate(-51.000000, -602.000000)">
            <g id="Drizzle-Icon-Group" transform="translate(40.000000, 592.000000)">
                <rect id="Weather-Icon-Frame" fill="#161A2E" opacity="0" x="0" y="0" width="56" height="56"></rect>
                <g id="Drizzle-Icon" transform="translate(11.000000, 10.000000)">
                    <path d="M25,7 C24.7,7 24.405,7.02 24.113,7.052 C22.942,2.981 19.197,0 14.75,0 C9.365,0 5,4.365 5,9.75 C5,10.2 5.041,10.641 5.101,11.074 C2.215,11.51 0,13.993 0,17 C0,20.313 2.687,23 6,23 L25,23 C29.418,23 33,19.418 33,15 C33,10.582 29.418,7 25,7 L25,7 Z" id="Shape" fill="#FFFFFF" opacity="0.8"></path>
                    <path d="M27.0527624,31.545174 L28.5978374,32.366974 L27.0129374,35.3467615 L25.4678624,34.5249615 L27.0527624,31.545174 Z M13.1893324,30.7938834 L14.7344074,31.6155084 L13.1498449,34.5952959 L11.6047699,33.7736709 L13.1893324,30.7938834 Z M8.7715751,30.0460813 L10.3170001,30.8673563 L8.7331126,33.8478188 L7.1876876,33.0265438 L8.7715751,30.0460813 Z M19.0655002,26.597902 L20.6105752,27.419527 L19.0260127,30.3993145 L17.4809377,29.5776895 L19.0655002,26.597902 Z M25.1330887,25.7222523 L26.6781637,26.5438773 L25.0936012,29.5236648 L23.5485262,28.7020398 L25.1330887,25.7222523 Z M3.8162317,24.6227632 L5.3613067,25.4445632 L3.7764067,28.4243507 L2.2313317,27.6025507 L3.8162317,24.6227632 Z M12.1796027,24.5048921 L13.7246777,25.3266921 L12.1397777,28.3064796 L10.5947027,27.4846796 L12.1796027,24.5048921 Z" id="Rectangle-path" fill="#5AC8FA"></path>
                </g>
            </g>
        </g>
    </g>
</svg>