<?xml version="1.0" encoding="UTF-8" standalone="no"?>
<svg
   xmlns:dc="http://purl.org/dc/elements/1.1/"
   xmlns:cc="http://creativecommons.org/ns#"
   xmlns:rdf="http://www.w3.org/1999/02/22-rdf-syntax-ns#"
   xmlns:svg="http://www.w3.org/2000/svg"
   xmlns="http://www.w3.org/2000/svg"
   xmlns:sodipodi="http://sodipodi.sourceforge.net/DTD/sodipodi-0.dtd"
   xmlns:inkscape="http://www.inkscape.org/namespaces/inkscape"
   inkscape:version="1.0beta2 (2b71d25, 2019-12-03)"
   sodipodi:docname="device-frame.svg"
   xml:space="preserve"
   style="enable-background:new 0 0 478 828;"
   viewBox="0 0 478 828"
   y="0px"
   x="0px"
   id="Layer_1"
   version="1.1"><metadata
   id="metadata22"><rdf:RDF><cc:Work
       rdf:about=""><dc:format>image/svg+xml</dc:format><dc:type
         rdf:resource="http://purl.org/dc/dcmitype/StillImage" /></cc:Work></rdf:RDF></metadata><defs
   id="defs20" /><sodipodi:namedview
   inkscape:current-layer="XMLID_52_"
   inkscape:window-maximized="0"
   inkscape:window-y="23"
   inkscape:window-x="0"
   inkscape:cy="75.229036"
   inkscape:cx="255.22482"
   inkscape:zoom="5.9053844"
   showgrid="false"
   id="namedview18"
   inkscape:window-height="855"
   inkscape:window-width="1440"
   inkscape:pageshadow="2"
   inkscape:pageopacity="0"
   guidetolerance="10"
   gridtolerance="10"
   objecttolerance="10"
   borderopacity="1"
   inkscape:document-rotation="0"
   bordercolor="#666666"
   pagecolor="#ffffff" />
<style
   id="style10"
   type="text/css">
	.st0{fill:none;}
	.st1{fill:#F2F2F2;}
</style>
<g
   id="XMLID_52_">
	<path
   inkscape:connector-curvature="0"
   d="m 366.6,75 h -28.5 c -6.1,0 -8.3,-0.8 -8.7,6.9 -0.2,4 -1.7,7 -4,9.5 -2.4,2.5 -5.6,4.7 -9.3,5.8 -2.5,0.8 -5.3,1.7 -8,1.7 h -5.4 -120.8 -5.4 c -2.7,0 -5.5,-1 -8,-1.8 -3.7,-1.2 -7,-3.3 -9.3,-5.8 -2.4,-2.6 -3.8,-5.5 -4,-9.5 -0.4,-7.7 -2.6,-7 -8.7,-7 H 117.7 C 100.2,75 85,87.4 85,104.8 v 613.3 c 0,17.5 15.2,32.9 32.6,32.9 h 249 c 17.5,0 30.4,-15.4 30.4,-32.9 V 104.8 C 397,87.4 384.1,75 366.6,75 Z"
   class="st0"
   id="XMLID_158_" />
	<path
   sodipodi:nodetypes="cssssccccccccccccssssccccsssssssssssscsssssscccsccscccssscc"
   inkscape:connector-curvature="0"
   d="M 416,219 V 106.6 C 416,77.8 393.6,56 364.8,56 H 116 C 87.2,56 63,77.9 63,106.6 V 150 h -3 v 27 h 3 v 25 h -3 v 51 h 3 v 15 h -3 v 51 h 3 v 401.4 c 0,28.8 24.3,53.6 53,53.6 h 248.8 c 28.8,0 51.2,-24.8 51.2,-53.6 V 302 h 4 V 219 Z M 282.3,80.5 c 0,2.4 -2,4.4 -4.4,4.4 -2.4,0 -4.4,-2 -4.4,-4.4 0,-2.4 2,-4.4 4.4,-4.4 2.4,0 4.4,2 4.4,4.4 z M 222.8,78 h 39 c 1.7,0 3,1 3,2.5 0,1.5 -1.3,2.5 -3,2.5 h -39 c -1.7,0 -3,-1 -3,-2.5 0,-1.5 1.3,-2.5 3,-2.5 z M 397,718.1 c 0,17.5 -12.9,32.9 -30.4,32.9 h -249 C 100.1,751 85,735.6 85,718.1 V 104.8 C 85,87.4 100.2,75 117.6,75 h 28.8 c 6.1,0 8.3,-0.9 8.7,6.8 0.2,4 1.7,7 4,9.6 2.4,2.5 5.6,4.8 9.3,5.9 2.5,0.8 5.3,1.7 8,1.7 h 5.4 120.7 5.4 c 2.7,0 5.5,-1.1 8,-1.9 3.7,-1.2 7,-3.2 9.3,-5.7 2.4,-2.5 3.8,-5.4 4,-9.4 0.4,-7.7 2.6,-7.1 8.7,-7.1 h 28.5 c 17.5,0 30.4,12.4 30.4,29.8 v 613.4 z"
   id="XMLID_156_" />
	
	
</g>
</svg>
