<?xml version="1.0" encoding="UTF-8"?><svg xmlns="http://www.w3.org/2000/svg" xmlns:xlink="http://www.w3.org/1999/xlink" width="120px" height="120px" viewBox="0 0 120 120" version="1.1"><title>Settings</title><defs><linearGradient x1="50%" y1="0%" x2="50%" y2="100%" id="linearGradient-1"><stop stop-color="#E8E2F0" offset="0%"/><stop stop-color="#8A8E92" offset="100%"/></linearGradient><rect id="path-2" x="0" y="0" width="120" height="120" rx="28"/><circle id="path-4" cx="60" cy="60" r="53"/><filter x="-1.9%" y="-1.9%" width="103.8%" height="103.8%" filterUnits="objectBoundingBox" id="filter-5"><feGaussianBlur stdDeviation="1.5" in="SourceAlpha" result="shadowBlurInner1"/><feOffset dx="0" dy="1" in="shadowBlurInner1" result="shadowOffsetInner1"/><feComposite in="shadowOffsetInner1" in2="SourceAlpha" operator="arithmetic" k2="-1" k3="1" result="shadowInnerInner1"/><feColorMatrix values="0 0 0 0 0 0 0 0 0 0 0 0 0 0 0 0 0 0 0.5 0" type="matrix" in="shadowInnerInner1"/></filter><linearGradient x1="50%" y1="-42.3314216%" x2="50%" y2="141.261823%" id="linearGradient-6"><stop stop-color="#E8E2F0" offset="0%"/><stop stop-color="#8A8E92" offset="100%"/></linearGradient><linearGradient x1="50%" y1="-13.1184604%" x2="50%" y2="111.924413%" id="linearGradient-7"><stop stop-color="#E8E2F0" offset="0%"/><stop stop-color="#8A8E92" offset="100%"/></linearGradient><path d="M59.69 54.827c.606 1.074 1.643 2.336 2.243 2.711.807.505 1.968.808 5.035.808h25.19-5.25c8 0 9.5-3 9.5-5.5 0-.935-.48-2.743-1.441-5.423C89.527 33.423 75.922 23.5 60 23.5a37.55 37.55 0 0 0-9.74 1.277c-.764.232-1.326.457-1.687.673-2.142 1.288-3.941 4.119.179 10.976l-2.712-4.513L59.053 53.57c.018.046.039.09.06.134l.576 1.124zM62 64.5c-.899.562-1.393 1.216-3 4L46.022 90.037l2.73-4.544c-4.12 6.857-2.321 9.688-.179 10.976.775.465 2.479.966 5.113 1.502A37.75 37.75 0 0 0 60 98.5c16.938 0 31.254-11.23 35.907-26.65.337-1.367.5-2.444.5-3.004 0-2.5-1.5-5.5-9.5-5.5h5.26-25.176c-2.94 0-4.092.592-4.991 1.154zM41.738 34.46l2.728 4.541c-4.12-6.857-7.464-6.598-9.607-5.31-.857.515-2.854 2.321-4.859 4.809l.084-.115A37.335 37.335 0 0 0 22.5 61c0 8.98 3.156 17.222 8.42 23.679l-.92-1.26c2.005 2.488 4.002 4.294 4.859 4.81 2.143 1.287 5.487 1.546 9.607-5.311l-2.745 4.569L54.1 66.88 54 67c1.333-2.667 2-4.833 2-6.5 0-1.347-.544-3.02-1.633-5.021L41.737 34.46zm26.145-22.316l1.186.188-.025 5.62c.825.177 1.642.378 2.45.601l2.163-5.092 1.153.331-.71 5.573c.798.277 1.584.576 2.36.898l2.767-4.79 1.104.469-1.384 5.447c.531.26 1.056.532 1.574.814l3.255-4.477 1.05.582-1.948 5.277c.712.448 1.41.916 2.093 1.404l3.78-4.05.97.705-2.577 5.004a43.24 43.24 0 0 1 1.905 1.648l4.247-3.562.878.818-3.169 4.654a43.256 43.256 0 0 1 1.692 1.866l4.649-3.017.771.919-3.71 4.23c.354.472.698.951 1.033 1.437l4.936-2.513.671.995-4.13 3.817c.432.72.842 1.453 1.232 2.2l5.201-1.891.545 1.069-4.56 3.283c.34.767.657 1.546.953 2.336l5.39-1.243.41 1.128-4.926 2.702c.243.802.463 1.614.66 2.435l5.502-.577.27 1.17-5.222 2.083c.1.58.188 1.163.265 1.75l5.538.002.146 1.191-5.417 1.528c.055.832.087 1.672.094 2.517l5.502.677v1.2l-5.563.856a43.27 43.27 0 0 1-.21 2.51l5.375 1.342-.146 1.191-5.62.172a42.783 42.783 0 0 1-.346 1.737l5.2 1.894-.27 1.17-5.604-.417a42.66 42.66 0 0 1-.771 2.402l4.927 2.513-.41 1.128-5.51-1.097a42.787 42.787 0 0 1-1.07 2.308l4.603 3.049-.536 1.074-5.367-1.719a43 43 0 0 1-.924 1.513l4.254 3.509-.645 1.012-5.152-2.267a43.187 43.187 0 0 1-1.552 1.993l3.79 3.995-.764.926-4.83-2.873c-.373.398-.754.789-1.142 1.172l3.575 5.11-.892.802-4.82-3.938c-.587.506-1.188.997-1.803 1.472l2.924 5.502-.983.689-4.299-4.491c-.536.36-1.081.708-1.635 1.044l2.45 5.505-1.03.618-3.921-4.717c-.707.367-1.424.714-2.152 1.042l1.75 5.733-1.096.488-3.302-5.134a42.67 42.67 0 0 1-1.557.545l1.137 5.86-1.14.372-2.739-5.433c-.775.198-1.559.376-2.35.531l.413 5.934-1.178.23-2.049-5.708c-.548.07-1.1.13-1.655.18l-.209 5.93-1.195.104-1.437-5.875a43.83 43.83 0 0 1-1.56.009l-1.425 5.826-1.195-.105-.206-5.847a43.186 43.186 0 0 1-1.693-.165l-2.014 5.61-1.178-.229.404-5.8a42.748 42.748 0 0 1-2.415-.518l-2.664 5.286-1.141-.371 1.1-5.672a42.667 42.667 0 0 1-1.636-.554l-3.186 4.954-1.097-.488 1.68-5.502a42.799 42.799 0 0 1-2.253-1.065l-3.75 4.51-1.029-.619 2.33-5.237a43.022 43.022 0 0 1-1.733-1.085l-4.08 4.264-.984-.689 2.764-5.201a43.206 43.206 0 0 1-1.923-1.545l-4.54 3.71-.892-.803 3.356-4.794a43.27 43.27 0 0 1-1.268-1.282l-4.485 2.668-.764-.926 3.506-3.695a43.194 43.194 0 0 1-1.668-2.117l-4.752 2.091-.645-1.012 3.91-3.226a43.01 43.01 0 0 1-1.02-1.655l-4.927 1.578-.536-1.074 4.213-2.79c-.41-.81-.796-1.634-1.156-2.472l-5.034 1.002-.41-1.128 4.492-2.29a42.661 42.661 0 0 1-.837-2.588l-5.103.38-.27-1.17 4.73-1.722a42.779 42.779 0 0 1-.386-1.925l-5.11-.156-.146-1.19 4.884-1.22c-.103-.895-.178-1.8-.225-2.711L12 61.46v-1.2l5.001-.616a43.59 43.59 0 0 1 .107-2.716l-4.93-1.39.147-1.19 5.043-.002c.086-.65.186-1.295.3-1.935l-4.762-1.9.27-1.169 5.024.527a42.67 42.67 0 0 1 .72-2.614l-4.508-2.473.41-1.128 4.944 1.14c.32-.845.665-1.677 1.035-2.496l-4.196-3.02.545-1.07 4.799 1.746a42.94 42.94 0 0 1 1.328-2.337l-3.824-3.534.67-.995 4.588 2.335c.366-.524.743-1.039 1.13-1.546l-3.458-3.943.771-.92 4.35 2.824a43.26 43.26 0 0 1 1.8-1.951l-2.978-4.375.878-.818 4.01 3.363a43.232 43.232 0 0 1 2.01-1.705l-2.445-4.748.97-.705 3.604 3.861c.713-.5 1.443-.979 2.188-1.436l-1.866-5.056 1.05-.582L39.858 22a42.844 42.844 0 0 1 1.648-.83l-1.338-5.267 1.104-.47 2.69 4.658c.796-.32 1.603-.617 2.42-.89l-.693-5.448 1.153-.33 2.127 5.006c.82-.217 1.648-.41 2.486-.58l-.025-5.556 1.186-.188 1.519 5.293c.83-.114 1.286-.207 2.13-.273l.661-5.586 1.2-.042L59 17c.206-.003.793 0 1 0 .376 0 .75.005 1.124.014l.868-5.474 1.2.042.66 5.588c.842.075 1.677.174 2.504.296l1.527-5.322z" id="path-8"/><filter x="-7.3%" y="-5.1%" width="114.5%" height="114.4%" filterUnits="objectBoundingBox" id="filter-9"><feOffset dx="0" dy="2" in="SourceAlpha" result="shadowOffsetOuter1"/><feGaussianBlur stdDeviation="2" in="shadowOffsetOuter1" result="shadowBlurOuter1"/><feColorMatrix values="0 0 0 0 0 0 0 0 0 0 0 0 0 0 0 0 0 0 0.5 0" type="matrix" in="shadowBlurOuter1"/></filter></defs><g id="@2x" stroke="none" stroke-width="1" fill="none" fill-rule="evenodd"><g id="Settings"><mask id="mask-3" fill="#fff"><use xlink:href="#path-2"/></mask><use id="bg" fill="url(#linearGradient-1)" xlink:href="#path-2"/><g id="Oval-2" mask="url(#mask-3)"><use fill="#302F33" fill-rule="evenodd" xlink:href="#path-4"/><use fill="#000" fill-opacity="1" filter="url(#filter-5)" xlink:href="#path-4"/></g><path d="M65.392 27.824l.798.126-.017 3.786c.556.12 1.107.255 1.65.405l1.457-3.43.777.223-.477 3.754c.537.186 1.066.388 1.588.604l1.864-3.226.744.316-.932 3.669c.358.176.711.359 1.06.549l2.192-3.016.707.392-1.311 3.554c.48.302.95.618 1.41.946l2.545-2.728.654.475-1.736 3.37c.439.358.867.728 1.283 1.11l2.861-2.399.591.551-2.134 3.135c.392.408.772.827 1.14 1.257l3.13-2.033.52.62-2.499 2.85c.238.317.47.64.696.967l3.325-1.693.452.67-2.782 2.571c.29.485.567.98.83 1.482l3.503-1.274.367.72-3.072 2.212c.23.516.443 1.041.642 1.573l3.631-.837.276.76-3.318 1.82c.164.54.312 1.087.444 1.64l3.707-.388.182.787-3.518 1.403c.067.39.127.784.179 1.18h3.73l.099.803-3.65 1.029c.038.56.06 1.126.064 1.695l3.706.457v.808l-3.747.576c-.031.569-.078 1.133-.141 1.692l3.62.903-.099.803-3.785.115c-.07.393-.148.783-.233 1.17l3.502 1.276-.182.788-3.774-.281a28.735 28.735 0 0 1-.52 1.618l3.32 1.693-.277.76-3.712-.74a28.82 28.82 0 0 1-.72 1.555l3.1 2.054-.36.723-3.616-1.158c-.2.345-.408.685-.622 1.02l2.866 2.363-.435.682-3.47-1.528a29.09 29.09 0 0 1-1.045 1.343l2.552 2.691-.514.624-3.253-1.936c-.252.269-.509.532-.77.79l2.408 3.442-.6.54-3.248-2.652c-.395.34-.8.672-1.214.992l1.97 3.706-.663.463-2.895-3.025a28.99 28.99 0 0 1-1.101.703l1.65 3.709-.693.416-2.642-3.177c-.476.247-.96.48-1.45.702l1.18 3.861-.739.329-2.224-3.459c-.347.13-.696.252-1.05.367l.767 3.948-.769.25-1.844-3.659a28.78 28.78 0 0 1-1.583.358l.278 3.997-.793.154-1.38-3.844c-.37.047-.741.088-1.115.12l-.14 3.995-.806.07-.968-3.957a29.522 29.522 0 0 1-1.05.006l-.96 3.924-.805-.07-.139-3.939c-.382-.03-.762-.067-1.14-.11l-1.357 3.778-.793-.154.272-3.907a28.794 28.794 0 0 1-1.627-.35l-1.794 3.561-.77-.25.742-3.82c-.37-.117-.738-.241-1.102-.373l-2.146 3.337-.739-.329 1.132-3.706a28.828 28.828 0 0 1-1.518-.717l-2.526 3.037-.692-.416 1.569-3.528a28.978 28.978 0 0 1-1.168-.73l-2.748 2.871-.663-.463 1.862-3.504a29.102 29.102 0 0 1-1.295-1.04l-3.058 2.499-.6-.541 2.26-3.23c-.291-.282-.576-.57-.855-.863l-3.02 1.797-.515-.624 2.361-2.489a29.095 29.095 0 0 1-1.123-1.426l-3.201 1.409-.435-.682 2.635-2.173a28.97 28.97 0 0 1-.688-1.114l-3.319 1.062-.36-.723 2.837-1.88c-.276-.545-.536-1.1-.778-1.665l-3.391.675-.277-.76 3.026-1.542a28.735 28.735 0 0 1-.564-1.743l-3.436.256-.182-.788 3.185-1.16c-.096-.429-.183-.86-.26-1.296l-3.441-.105-.099-.803 3.29-.82c-.07-.604-.12-1.213-.152-1.827l-3.406-.524v-.808l3.369-.415c.005-.615.029-1.225.072-1.83l-3.32-.936.098-.802 3.397-.001c.058-.438.125-.872.202-1.303l-3.208-1.28.182-.787 3.384.354c.144-.594.306-1.181.485-1.76l-3.036-1.666.276-.76 3.33.768c.215-.57.448-1.13.697-1.681L30.852 46.1l.367-.72 3.232 1.175c.283-.535.581-1.06.895-1.574l-2.576-2.38.452-.67 3.09 1.572c.246-.353.5-.7.761-1.041l-2.33-2.656.52-.62 2.93 1.902c.391-.45.796-.889 1.213-1.314L37.4 36.828l.59-.55 2.702 2.264c.44-.396.891-.78 1.354-1.148L40.4 34.196l.654-.475 2.427 2.601c.48-.337.972-.66 1.473-.967l-1.256-3.406.707-.392 2.111 2.905c.366-.194.736-.38 1.11-.56l-.901-3.547.744-.316 1.812 3.137a28.75 28.75 0 0 1 1.63-.599l-.467-3.67.777-.223 1.432 3.372c.552-.146 1.11-.276 1.675-.39l-.017-3.743.798-.126 1.024 3.565c.559-.076.866-.14 1.435-.183l.445-3.764.808-.028.588 3.708c.139-.002.534 0 .674 0 .253 0 .505.003.757.01l.585-3.688.807.028.446 3.764c.567.05 1.129.117 1.686.2l1.029-3.585zM60 83c12.703 0 23-10.297 23-23S72.703 37 60 37 37 47.297 37 60s10.297 23 23 23z" id="small-gear" fill="url(#linearGradient-6)" mask="url(#mask-3)"/><g id="big-gear" mask="url(#mask-3)"><use fill="#000" fill-opacity="1" filter="url(#filter-9)" xlink:href="#path-8"/><use fill="url(#linearGradient-7)" fill-rule="evenodd" xlink:href="#path-8"/></g></g></g><metadata><rdf:RDF xmlns:rdf="http://www.w3.org/1999/02/22-rdf-syntax-ns#" xmlns:rdfs="http://www.w3.org/2000/01/rdf-schema#" xmlns:dc="http://purl.org/dc/elements/1.1/"><rdf:Description about="https://iconscout.com/legal#licenses" dc:title="settings" dc:description="settings" dc:publisher="Iconscout" dc:date="2017-09-26" dc:format="image/svg+xml" dc:language="en"><dc:creator><rdf:Bag><rdf:li>Giulio Smedile</rdf:li></rdf:Bag></dc:creator></rdf:Description></rdf:RDF></metadata></svg>