<?xml version="1.0" encoding="UTF-8" standalone="no"?>
<svg
   xmlns:dc="http://purl.org/dc/elements/1.1/"
   xmlns:cc="http://creativecommons.org/ns#"
   xmlns:rdf="http://www.w3.org/1999/02/22-rdf-syntax-ns#"
   xmlns:svg="http://www.w3.org/2000/svg"
   xmlns="http://www.w3.org/2000/svg"
   xmlns:sodipodi="http://sodipodi.sourceforge.net/DTD/sodipodi-0.dtd"
   xmlns:inkscape="http://www.inkscape.org/namespaces/inkscape"
   sodipodi:docname="device-ipad-frame.svg"
   inkscape:version="1.0beta2 (2b71d25, 2019-12-03)"
   id="svg8"
   version="1.1"
   viewBox="0 0 409.64545 534.34491">
  <defs
     id="defs2" />
  <sodipodi:namedview
     inkscape:window-maximized="0"
     inkscape:window-y="23"
     inkscape:window-x="0"
     inkscape:window-height="855"
     inkscape:window-width="1440"
     showgrid="false"
     inkscape:document-rotation="0"
     inkscape:current-layer="layer1"
     inkscape:document-units="mm"
     inkscape:cy="844.61648"
     inkscape:cx="268.90861"
     inkscape:zoom="0.35"
     inkscape:pageshadow="2"
     inkscape:pageopacity="0.0"
     borderopacity="1.0"
     bordercolor="#666666"
     pagecolor="#ffffff"
     id="base" />
  <metadata
     id="metadata5">
    <rdf:RDF>
      <cc:Work
         rdf:about="">
        <dc:format>image/svg+xml</dc:format>
        <dc:type
           rdf:resource="http://purl.org/dc/dcmitype/StillImage" />
        <dc:title></dc:title>
      </cc:Work>
    </rdf:RDF>
  </metadata>
  <g
     transform="translate(115.37195,75.304777)"
     id="layer1"
     inkscape:groupmode="layer"
     inkscape:label="Layer 1">
    <path
       inkscape:connector-curvature="0"
       d="m 292.55105,-13.897524 c 0.882,0 1.642,-0.053 1.69,1 0.073,1.604 0,3.2290004 0,4.8340004 0,4.349 0,8.69700003 0,13.046 0,1.185 -0.571,1.276 -1.69,1.276 m 0,-42.8110004 c 0.882,0 1.642,-0.053 1.69,1 0.073,1.604 0,3.229 0,4.834 0,4.349 0,8.697 0,13.046 0,1.185 -0.571,1.276 -1.69,1.276 m -47.339,-57.2 c 0,-1.04 0.048,-1.685 1.189,-1.69 1.894,-0.009 3.789,0 5.684,0 4.898,0 9.796,0 14.694,0 0.31,0 0.727,-0.066 1.027,0.053 0.679,0.27 0.529,1.054 0.529,1.637 m -383.707,508.418994 c 0.028,6.674 2.808,13.143 7.694,17.703 4.477,4.178 10.433995,6.488 16.547995,6.512 1.597,0.006 3.195,0 4.792,0 4.066002,0 8.132002,0 12.198002,0 6.212,0 12.424,0 18.637,0 7.931,0 15.861,0 23.792,0 9.368,0 18.735,0 28.1030002,0 10.3440004,0 20.6870008,0 31.0309998,0 11.004,0 22.009,0 33.013,0 11.364,0 22.729,0 34.093,0 11.242003,0 22.484003,0 33.726003,0 10.873,0 21.747,0 32.62,0 10.028,0 20.056,0 30.083,0 8.923,0 17.846,0 26.769,0 7.362,0 14.724,0 22.086,0 5.502,0 11.004,0 16.505,0 3.256,0 6.512,0 9.768,0 2.503,0 4.966,-0.021 7.434,-0.562 6.508,-1.426 12.248,-5.573 15.646,-11.305 2.292,-3.866 3.382,-8.243 3.385,-12.721 0.001,-1.727 0,-3.454 0,-5.182 0,-3.579 0,-7.157 0,-10.736 0,-5.267 0,-10.534 0,-15.8 0,-6.7 0,-13.4 0,-20.099 0,-7.98 0,-15.96 0,-23.94 0,-9.044 0,-18.087 0,-27.131 0,-9.88 0,-19.76 0,-29.639 0,-10.597 0,-21.194 0,-31.79 0,-11.002 0,-22.005 0,-33.007 0,-11.323 0,-22.647 0,-33.97 0,-11.325 0,-22.651 0,-33.976 0,-11.246 0,-22.492 0,-33.738 0,-10.848 0,-21.697 0,-32.545 0,-10.311999 0,-20.622999 0,-30.934994 0,-9.624 0,-19.249 0,-28.873 0,-8.636 0,-17.272 0,-25.908 0,-7.5379996 0,-15.0759996 0,-22.6139996 0,-6.1610004 0,-12.3220004 0,-18.4820004 0,-4.648 0,-9.295 0,-13.943 0,-2.886 0,-5.771 0,-8.657 0,-1.232 0.028,-2.469 -0.014,-3.701 -0.228,-6.605 -3.228,-12.966 -8.192,-17.332 -4.433,-3.899 -10.172,-6.025 -16.066,-6.047 -1.696,-0.006 -3.392,0 -5.087,0 -4.15,0 -8.301,0 -12.451,0 -6.284,0 -12.567,0 -18.851,0 -7.988,0 -15.977,0 -23.965,0 -9.412,0 -18.824,0 -28.237,0 -10.375,0 -20.749,0 -31.124,0 -11.052,0 -22.103,0 -33.155,0 -11.339,0 -22.678003,0 -34.016003,0 -11.233,0 -22.465,0 -33.698,0 -10.851,0 -21.701,0 -32.551999,0 -9.9920004,0 -19.9830008,0 -29.975001,0 -8.873,0 -17.747,0 -26.62,0 -7.299,0 -14.598,0 -21.897,0 -5.437,0 -10.874,0 -16.31,0 -3.155,0 -6.309002,0 -9.464002,0 -2.686,0 -5.328,0.072 -7.96,0.738 -6.466995,1.636 -12.061995,5.959 -15.283995,11.799 -2.06,3.734 -3.003,7.889 -3.003,12.136 0,1.8 0,3.6 0,5.4 0,3.644 0,7.287 0,10.931 0,5.325 0,10.649 0,15.974 0,6.7500004 0,13.5000004 0,20.2500004 0,8.0449996 0,16.0909996 0,24.1359996 0,9.056 0,18.113 0,27.169 0,9.908 0,19.816 0,29.722995 0,10.617 0,21.234999 0,31.851999 0,11.016 0,22.031 0,33.047 0,11.329 0,22.658 0,33.988 0,11.324 0,22.647 0,33.971 0,11.237 0,22.474 0,33.711 0,10.832 0,21.664 0,32.496 0,10.341 0,20.681 0,31.022 0,9.541 0,19.081 0,28.622 0,8.598 0,17.195 0,25.793 0,7.492 0,14.984 0,22.476 0,6.108 0,12.215 0,18.323 0,4.587 0,9.173 0,13.76 0,2.818 0,5.635 0,8.453 -0.002,0.88 -0.002,1.764 -0.002,2.648 z m 24.128995,7.104 c -3.815,-0.005 -6.899,-3.138 -6.979,-6.92 -0.02,-0.953 -0.001,-1.909 -0.001,-2.862 0,-2.688 0,-5.375 0,-8.063 0,-4.297 0,-8.595 0,-12.892 0,-5.723 0,-11.445 0,-17.168 0,-6.932 0,-13.863 0,-20.794 0,-8.044 0,-16.087 0,-24.131 0,-8.946 0,-17.892 0,-26.839 0,-9.619 0,-19.238 0,-28.857 0,-10.225 0,-20.45 0,-30.675 0,-10.605 0,-21.21 0,-31.815 0,-10.75 0,-21.501 0,-32.251 0,-10.841 0,-21.683 0,-32.524 0,-10.67 0,-21.339 0,-32.009 0,-10.355 0,-20.709 0,-31.064 0,-9.892999 0,-19.785999 0,-29.678994 0,-9.203 0,-18.407 0,-27.61 0,-8.369 0,-16.737 0,-25.106 0,-7.38 0,-14.7589996 0,-22.1389996 0,-6.176 0,-12.3530004 0,-18.5290004 0,-4.822 0,-9.644 0,-14.466 0,-3.301 0,-6.603 0,-9.904 0,-1.587 -0.001,-3.174 0,-4.761 0.002,-2.516 1.046,-4.861 3.216,-6.25 1.66,-1.063 3.436,-1.102 5.311,-1.102 2.738,0 5.477002,0 8.215002,0 4.853,0 9.706,0 14.559,0 6.642,0 13.285,0 19.927,0 8.067,0 16.134,0 24.201,0 9.266,0 18.5320002,0 27.7980006,0 10.1070004,0 20.2139994,0 30.3219994,0 10.572,0 21.145,0 31.717,0 10.84,0 21.68,0 32.519,0 10.733003,0 21.466003,0 32.199003,0 10.255,0 20.509,0 30.764,0 9.575,0 19.15,0 28.725,0 8.52,0 17.04,0 25.56,0 7.114,0 14.227,0 21.341,0 5.471,0 10.942,0 16.413,0 3.462,0 6.924,0 10.385,0 1.292,0 2.604,-0.066 3.896,0.013 3.683,0.224 6.498,3.325 6.559,6.97 0.016,1 0,2.002 0,3.002 0,2.758 0,5.515 0,8.273 0,4.356 0,8.712 0,13.067 0,5.739 0,11.477 0,17.2160004 0,7.01200003 0,14.023 0,21.0349996 0,8.082 0,16.164 0,24.246 0,8.926 0,17.852 0,26.778 0,9.695 0,19.390995 0,29.085995 0,10.242999 0,20.485999 0,30.728999 0,10.557 0,21.114 0,31.67 0,10.814 0,21.628 0,32.442 0,10.839 0,21.678 0,32.518 0,10.631 0,21.263 0,31.894 0,10.368 0,20.736 0,31.104 0,9.871 0,19.741 0,29.612 0,9.15 0,18.3 0,27.45 0,8.357 0,16.714 0,25.071 0,7.337 0,14.674 0,22.011 0,6.112 0,12.224 0,18.336 0,4.781 0,9.562 0,14.344 0,3.232 0,6.464 0,9.695 0,1.524 0.004,3.049 0,4.573 -0.007,2.634 -1.228,5.079 -3.577,6.391 -1.633,0.912 -3.339,0.886 -5.127,0.886 -2.83,0 -5.66,0 -8.489,0 -4.928,0 -9.856,0 -14.784,0 -6.685,0 -13.369,0 -20.054,0 -8.138,0 -16.276,0 -24.414,0 -9.304,0 -18.609,0 -27.913,0 -10.076,0 -20.151,0 -30.227,0 -10.644,0 -21.288,0 -31.932,0 -10.842003,0 -21.683003,0 -32.525003,0 -10.664,0 -21.329,0 -31.993,0 -10.29,0 -20.580999,0 -30.870999,0 -9.5400008,0 -19.0800008,0 -28.620001,0 -8.43,0 -16.859,0 -25.289,0 -7.098,0 -14.196,0 -21.294,0 -5.4,0 -10.799,0 -16.199,0 -3.372,0 -6.744,0 -10.116002,0 -1.074,-0.002 -2.149,-0.002 -3.223,-0.002 z"
       id="path29" />
  </g>
</svg>
