<?xml version="1.0" encoding="UTF-8"?>
<svg width="66px" height="66px" viewBox="0 0 66 66" version="1.1" xmlns="http://www.w3.org/2000/svg" xmlns:xlink="http://www.w3.org/1999/xlink">
    <!-- Generator: Sketch 64 (93537) - https://sketch.com -->
    <title>Songs Icon - Inactive 2</title>
    <desc>Created with Sketch.</desc>
    <g id="iOS-9.3-UI-Kit" stroke="none" stroke-width="1" fill="none" fill-rule="evenodd">
        <g id="-" transform="translate(-7.000000, -3543.000000)">
            <g id="Songs-Icon---Inactive-2" transform="translate(7.000000, 3543.000000)">
                <rect id="Rectangle" fill="#FFFFFF" x="0" y="0" width="66" height="66"></rect>
                <path d="M21,48.1001459 C21,50.8061523 23.7173104,53 27.9806617,53 C31.7605492,53 34.9126293,49.6766207 34.9126293,46.9706143 L34.9126293,23.5887017 L45.3471013,25.2286529 C46.2566394,25.4156038 47.0861799,24.5886719 47.0861799,23.6373959 L47.0861799,16.9210741 C47.0861799,16.2028346 46.7601027,15.6637202 45.9053455,15.4428572 L34.6152468,13.0298856 C33.7057087,12.8429346 33.1744202,13.5568264 33.1744202,14.5081025 L33.1744202,41.6759893 C33.1744202,42.0924986 32.8457343,42.5646585 32.4396594,42.5646585 L27.9815313,42.5646585 C22.7390787,42.565528 21,45.3941395 21,48.1001459 L21,48.1001459 Z" id="Songs-Icon---Inactive" fill="#B6B6B6"></path>
            </g>
        </g>
    </g>
</svg>