<?xml version="1.0" encoding="UTF-8"?>
<svg width="31px" height="48px" viewBox="0 0 31 48" version="1.1" xmlns="http://www.w3.org/2000/svg" xmlns:xlink="http://www.w3.org/1999/xlink">
    <!-- Generator: Sketch 64 (93537) - https://sketch.com -->
    <title>Pause Button</title>
    <desc>Created with Sketch.</desc>
    <g id="iOS-9.3-UI-Kit" stroke="none" stroke-width="1" fill="none" fill-rule="evenodd">
        <g id="Music---Album-Detail" transform="translate(-32.000000, -1181.000000)" fill="#FFFFFF">
            <path d="M40.5714286,1181 C41.5194286,1181 42.2857143,1181.76629 42.2857143,1182.71429 L42.2857143,1182.71429 L42.2857143,1227.28571 C42.2857143,1228.23371 41.5194286,1229 40.5714286,1229 L40.5714286,1229 L33.7142857,1229 C32.7662857,1229 32,1228.23371 32,1227.28571 L32,1227.28571 L32,1182.71429 C32,1181.76629 32.7662857,1181 33.7142857,1181 L33.7142857,1181 Z M61.1428571,1181 C62.0908571,1181 62.8571429,1181.76629 62.8571429,1182.71429 L62.8571429,1182.71429 L62.8571429,1227.28571 C62.8571429,1228.23371 62.0908571,1229 61.1428571,1229 L61.1428571,1229 L54.2857143,1229 C53.3377143,1229 52.5714286,1228.23371 52.5714286,1227.28571 L52.5714286,1227.28571 L52.5714286,1182.71429 C52.5714286,1181.76629 53.3377143,1181 54.2857143,1181 L54.2857143,1181 Z" id="Pause-Button"></path>
        </g>
    </g>
</svg>