<?xml version="1.0" encoding="UTF-8"?>
<svg width="40px" height="26px" viewBox="0 0 40 26" version="1.1" xmlns="http://www.w3.org/2000/svg" xmlns:xlink="http://www.w3.org/1999/xlink">
    <g stroke="none" stroke-width="1" fill="none" fill-rule="evenodd">
        <g transform="translate(-464.000000, -1279.000000)" fill="#FFFFFF">
            <g transform="translate(0.000000, 750.000000)">
                <path d="M503.941,541 C503.978,541.328 504,541.662 504,542 C504,547.583 499.971,551 495,551 L495,551 L478.418,551 L481,553.875 L479.75,555 L475,550 L479.875,545 L481,546.125 L478.418,549 L495,549 C498.859,549 502,546.083 502,542 C502,541.66 501.967,541.327 501.92,541 L501.92,541 Z M488.25,529 L493,534 L488.125,539 L487,537.875 L489.582,535 L473,535 C469.141,535 466,537.917 466,542 C466,542.34 466.033,542.673 466.08,543 L466.08,543 L464.059,543 C464.022,542.672 464,542.338 464,542 C464,536.417 468.029,533 473,533 L473,533 L489.582,533 L487,530.125 L488.25,529 Z"></path>
            </g>
        </g>
    </g>
</svg>