<?xml version="1.0" encoding="UTF-8"?>
<svg width="40px" height="26px" viewBox="0 0 40 26" version="1.1" xmlns="http://www.w3.org/2000/svg" xmlns:xlink="http://www.w3.org/1999/xlink">
    <g stroke="none" stroke-width="1" fill="none" fill-rule="evenodd">
        <g transform="translate(-246.000000, -1279.000000)" fill="#FFFFFF">
            <g transform="translate(0.000000, 750.000000)">
                <g transform="translate(238.000000, 521.000000)">
                    <path d="M42,25.125 L44.582,28 L34.506,28 C34.188,28 33.889,27.849 33.7,27.592 L28.5,21 L33.7,14.408 C33.888,14.151 34.187,14 34.506,14 L44.582,14 L42,16.875 L43.125,18 L48,13 L43.25,8 L42,9.125 L44.582,12 L34.27,12 C33.315,12 32.416,12.455 31.852,13.225 L27.5,19.5 L23.148,13.225 C22.584,12.455 21.685,12 20.73,12 L8,12 L8,14 L20.494,14 C20.812,14 21.111,14.151 21.3,14.408 L26.5,21 L21.3,27.592 C21.112,27.849 20.813,28 20.494,28 L8,28 L8,30 L20.73,30 C21.685,30 22.584,29.545 23.148,28.775 L27.5,22.5 L31.852,28.775 C32.416,29.545 33.315,30 34.27,30 L44.582,30 L42,32.875 L43.125,34 L48,29 L43.25,24 L42,25.125 L42,25.125 Z"></path>
                </g>
            </g>
        </g>
    </g>
</svg>