<?xml version="1.0" encoding="UTF-8"?>
<svg width="42px" height="40px" viewBox="0 0 42 40" version="1.1" xmlns="http://www.w3.org/2000/svg" xmlns:xlink="http://www.w3.org/1999/xlink">
    <g stroke="none" stroke-width="1" fill="none" fill-rule="evenodd">
        <g transform="translate(-4578.000000, -2723.000000)" fill="#FFF">
            <g transform="translate(3900.000000, 2561.000000)">
                <g transform="translate(0.000000, 138.000000)">
                    <g transform="translate(30.000000, 15.000000)">
                        <path d="M675.233,9.704 C675.681,9.015 676.623,8.794 677.379,9.177 C684.885,12.977 690,20.434 690,28.997 C690,37.553 684.894,45.005 677.4,48.808 C676.645,49.192 675.701,48.971 675.254,48.281 L675.254,48.281 C674.777,47.549 675.053,46.594 675.857,46.189 C682.374,42.904 686.811,36.441 686.811,28.998 C686.811,21.548 682.366,15.079 675.838,11.797 C675.034,11.392 674.757,10.437 675.233,9.704 Z M666,14 L666,44 L656.378,34 L648,34 L648,24 L656.747,24 L666,14 Z M671.237,15.732 C671.7,15.022 672.687,14.781 673.457,15.197 C678.556,17.953 682,23.101 682,28.999 C682,34.888 678.565,40.029 673.479,42.789 C672.709,43.206 671.72,42.965 671.257,42.255 C670.774,41.513 671.056,40.561 671.858,40.125 C675.952,37.9 678.705,33.751 678.705,28.999 C678.705,24.241 675.944,20.086 671.84,17.863 C671.036,17.427 670.754,16.474 671.237,15.732 Z M668.232,22.189 C668.683,21.531 669.658,21.285 670.396,21.689 C673.155,23.2 675,25.91 675,28.998 C675,32.078 673.166,34.781 670.42,36.295 C669.682,36.702 668.705,36.456 668.252,35.797 L668.252,35.797 C667.795,35.131 668.014,34.263 668.754,33.853 C670.573,32.843 671.785,31.047 671.785,28.998 C671.785,26.962 670.589,25.176 668.788,24.162 C668.03,23.735 667.764,22.87 668.232,22.189 Z"></path>
                    </g>
                </g>
            </g>
        </g>
    </g>
</svg>